<svg xmlns="http://www.w3.org/2000/svg" viewBox="0 0 327.73 299.98"><defs><style>.cls-1{fill:#be1622;}.cls-2{fill:none;}</style></defs><g id="Ebene_2" data-name="Ebene 2"><g id="Layer_1" data-name="Layer 1"><path class="cls-1" d="M48.11,186.48l-.35-2.78.63-.08A3,3,0,0,0,50,183a2,2,0,0,0,.16-2.49,1.85,1.85,0,0,0-.61-.51,2.35,2.35,0,0,0-.85-.19,4.28,4.28,0,0,0-.94,0,7.13,7.13,0,0,0-1,.16,1.8,1.8,0,0,0-.66.29,1.51,1.51,0,0,0-.45.54,4.43,4.43,0,0,0-.33.91l-.57,2.23a5.35,5.35,0,0,1-.64,1.61,3.78,3.78,0,0,1-1,1,5.29,5.29,0,0,1-1.43.59,14.08,14.08,0,0,1-1.88.35,10,10,0,0,1-2.31.05,4.94,4.94,0,0,1-1.88-.57,3.87,3.87,0,0,1-1.39-1.34,5.29,5.29,0,0,1-.72-2.21,4.92,4.92,0,0,1,.11-1.92,4.71,4.71,0,0,1,.79-1.62,5,5,0,0,1,1.33-1.18,4.33,4.33,0,0,1,1.77-.6l1-.13.35,2.78-.87.11a2.23,2.23,0,0,0-1.31.62,1.74,1.74,0,0,0-.42,1.59,2.5,2.5,0,0,0,.34,1.08,1.58,1.58,0,0,0,.66.54,2.19,2.19,0,0,0,1,.14c.36,0,.75-.06,1.19-.11s.92-.14,1.24-.21a2.25,2.25,0,0,0,.76-.32,1.51,1.51,0,0,0,.43-.57,6.31,6.31,0,0,0,.3-.88l.57-2.09A4.43,4.43,0,0,1,44.4,178a6.8,6.8,0,0,1,3-1,7.08,7.08,0,0,1,2.11,0,4.59,4.59,0,0,1,1.8.68,4.13,4.13,0,0,1,1.32,1.31,4.83,4.83,0,0,1,.69,2.06,4.62,4.62,0,0,1-.14,1.94,4.9,4.9,0,0,1-.82,1.61,4.25,4.25,0,0,1-2.84,1.64Z"/><path class="cls-1" d="M38.54,203.45l18-7.67,1.1,2.57-7.7,3.29,1.36,3.18,7.7-3.29,1.1,2.58-18,7.67L41,209.2l8-3.41-1.36-3.18-8,3.41Z"/><path class="cls-1" d="M62,216.43a5,5,0,0,1,1.92-.91,4.33,4.33,0,0,1,1.86,0,4.51,4.51,0,0,1,1.6.67,4.86,4.86,0,0,1,1.25,1.18,4.77,4.77,0,0,1,.76,1.53,4.92,4.92,0,0,1,.21,1.75,4.6,4.6,0,0,1-.57,1.76A5,5,0,0,1,67.55,224l-.79.59-1.67-2.24.79-.59a1.88,1.88,0,0,0,.86-1.35,2.09,2.09,0,0,0-1.58-2.13,1.84,1.84,0,0,0-1.54.44l-8.28,6.15a1.89,1.89,0,0,0-.87,1.35,2.08,2.08,0,0,0,1.59,2.13,1.85,1.85,0,0,0,1.54-.44l2.95-2.19-1.33-1.79,2-1.47,3,4-4.93,3.67a5,5,0,0,1-1.94.93,4.42,4.42,0,0,1-1.81,0,5,5,0,0,1-1.64-.68,5,5,0,0,1-2-2.71,4.27,4.27,0,0,1-.16-1.74,4,4,0,0,1,.51-1.75,4.87,4.87,0,0,1,1.45-1.59Z"/><path class="cls-1" d="M65.85,244.2l13-14.62,2,1.78-4.17,10.13,0,0,9.53-5.37,2,1.8-13,14.62-2.09-1.85,7.88-8.9,0,0-7.65,4.44-1-.92,3.51-8.11,0,0L68,246.06Z"/><path class="cls-2" d="M188.45,185.3s-21.34,48.78-29.27,61.59-34.75,25-65.85,21.95-41.47-18.9-52.44-35.37-21.55-44.92-24.8-67H126.86s3.66,12.09,11,15.75,40.24,10.37,50-3.05S188.45,185.3,188.45,185.3Z"/><path class="cls-2" d="M278.7,207.86s23.17,0,30.48-.61,20.13-10.36,14-17.68-21.95-10.37-29.27-3S278.7,207.86,278.7,207.86Z"/><path class="cls-2" d="M301.26,180.42s-16.47,1.83-26.83,38.42-21.34,59.14-56.1,68.29c0,0-22.56-1.22-32.93-16.46,0,0-23.78,19.51-43.9,21.95S72.6,266.4,72.6,266.4s28,7.32,53.05-1.22,41.46-29.27,48.17-47,7.92-34.76,25-34.76S301.26,180.42,301.26,180.42Z"/><path class="cls-1" d="M27.44,127.43l15,9.62,10.88,1.07-.65,6.56-10.87-1.07-16.62,6.51.7-7.16,10-3.26-9.2-5.11Z"/><path class="cls-1" d="M50.49,99.4a37.86,37.86,0,0,1,5.29,2.3,8.89,8.89,0,0,1,3.71,4,10.83,10.83,0,0,1-5.27,14,8.88,8.88,0,0,1-5.4.56,37.75,37.75,0,0,1-5.5-1.75,38.14,38.14,0,0,1-5.3-2.3,8.92,8.92,0,0,1-3.7-4,10.83,10.83,0,0,1,5.26-14,8.81,8.81,0,0,1,5.4-.55A35.81,35.81,0,0,1,50.49,99.4Zm-2.32,6.17q-5-1.86-6.52-1.4a3.57,3.57,0,0,0-1.85,5c.57.91,2.52,2,5.83,3.23s5.44,1.7,6.44,1.41a3.52,3.52,0,0,0,1.88-5C53.39,107.86,51.47,106.81,48.17,105.57Z"/><path class="cls-1" d="M78.17,81l-10.3,14.6L45.94,80.1l3.81-5.39L66.87,86.79l6.5-9.21Z"/><path class="cls-1" d="M93.65,55.2A10.44,10.44,0,0,1,84,71a8.88,8.88,0,0,1-5-2.13,37.21,37.21,0,0,1-4-4.18,37.63,37.63,0,0,1-3.52-4.58,8.8,8.8,0,0,1-1.33-5.26,11,11,0,0,1,10.14-9.82,10.28,10.28,0,0,1,7,2.7l-5.09,4.37c-1.64-1.11-3.13-1.1-4.47.05a3.06,3.06,0,0,0-1.24,2.55q.09,1.66,3.54,5.7c2.3,2.69,4,4.15,5.08,4.38A3.08,3.08,0,0,0,87.81,64q2-1.72.74-4.41Z"/><path class="cls-1" d="M120.44,40a9,9,0,0,1,.33,7.57,10.41,10.41,0,0,1-5.4,5.53,10.16,10.16,0,0,1-7.6.7,9,9,0,0,1-5.7-5.05L94.58,33l6-2.84L108,45.76a4.14,4.14,0,0,0,2.09,2.2,3.36,3.36,0,0,0,2.79-.18,3.51,3.51,0,0,0,1.94-2.07,4.05,4.05,0,0,0-.36-3L107,27.1l6-2.84Z"/><path class="cls-1" d="M168.42,41.93l-6.59.25-.4-10.62-7,.26.41,10.62-6.59.25-1-26.81,6.59-.25L154.2,26l7-.27-.4-10.32,6.59-.25Z"/><path class="cls-1" d="M200.16,48.07l-6.71-1.6-.28-4.17-8-1.91L182.93,44l-6.71-1.6,15.71-23.84,4.95,1.18Zm-7.4-11.53-.55-7.48-4,6.4Z"/><path class="cls-1" d="M227.15,62.24l-6.71-3.74-.05-12.62-3.24,1.17-4.09,7.34-5.69-3.17,13-23.44,5.7,3.17-4.62,8.3,11.4-4.52,7,3.92-13.28,5Z"/><path class="cls-1" d="M245.57,79.33,232.64,67l18.52-19.43,4.78,4.55L241.47,67.3l8.16,7.78Z"/><path class="cls-1" d="M262.77,105l-3.63-5.86L261.89,96l-4.34-7-4.09,1-3.63-5.87,28-5.8,2.67,4.32Zm2.89-13.39,4.9-5.69-7.36,1.72Z"/><path class="cls-1" d="M271.56,132.7l-2.14-7.34,8.26-7.35-.62-2.13-9.59,2.78-1.84-6.33,25.77-7.49,3,10.2a9,9,0,0,1-.67,7.3,8.22,8.22,0,0,1-5.07,3.91,7.34,7.34,0,0,1-7.95-2.24Zm15.23-12.78a2.66,2.66,0,0,0,1.61-1.3,2.75,2.75,0,0,0,.2-2.21l-1-3.59-5.21,1.52,1,3.58a2.81,2.81,0,0,0,1.35,1.77A2.68,2.68,0,0,0,286.79,119.92Z"/><path class="cls-1" d="M272.64,148.09l-.44-6.57L299,139.71l.44,6.58Z"/><path class="cls-1" d="M256.35,209.33l-62.65-2.81a2.41,2.41,0,0,0-2.55,2.33,2.44,2.44,0,0,0,2.33,2.54l62.65,2.81h.11a2.44,2.44,0,0,0,.11-4.88Z"/><path class="cls-1" d="M247.22,231.82l-61.33-5.95a2.44,2.44,0,0,0-.47,4.86l61.32,6H247a2.44,2.44,0,0,0,.24-4.87Z"/><path class="cls-1" d="M230.86,252.67l-55-9.42a2.44,2.44,0,1,0-.83,4.81l55,9.42.41,0a2.44,2.44,0,0,0,.41-4.84Z"/><path class="cls-1" d="M327.65,194c-.67-8.32-8.29-16.43-21.54-15.92h0l-108.82,1.66a18.64,18.64,0,0,0-2.51.45,30.13,30.13,0,0,0,3.07-5.47l119.22-3.59a6.81,6.81,0,0,0,4.67-1.83l3.41-3.55c1-.85.73-2.07-.88-2.07l-132.86-.42c-3.68,13.26-15.78,23.43-30.21,23.43a31.38,31.38,0,0,1-30.38-23.57H1c-1.16,0-1.37,1.32-.44,2.2l3.21,2.56c1.44.53,3,2.19,6.32,2.19l52.71,2.27C65,193.06,75.51,213.7,92.09,226c2.65,2,5.13-2.52,2.51-4.45-15.38-11.38-22.13-30-22.46-48.83l23.92,1c1.16,16.14,9,32.56,22.27,41.62,2.71,1.85,5.94-2.11,3.22-4-11.41-9.13-15.44-23.05-15.21-37.21l18.36.79s9.8,21.61,35.71,21.86a43.57,43.57,0,0,0,19.49-4.06c-2.31,5.11-4.43,10.27-6.47,15.27-7,17.14-13.6,33.32-27.29,44.56C135.62,261.21,120.2,266,102.7,266c-11.81,0-23.59-2.27-32.52-6.21A142.37,142.37,0,0,1,22.63,183.1a3.66,3.66,0,0,0-7.12,1.7,149.71,149.71,0,0,0,49.61,80.28,3.9,3.9,0,0,0,.31.4,143.48,143.48,0,0,0,52.9,28.2A151.29,151.29,0,0,0,161.6,300a221.57,221.57,0,0,0,29.14-2l.41,0c50.57-4.87,89.83-40.06,109-85.88h12.21a32.24,32.24,0,0,0,4.28-.34,13.44,13.44,0,0,0,4.89-2.25C325.87,206.26,328.18,200.44,327.65,194Zm-97.48,85c-10.88,6.39-18.75,7.21-26.08,2.54-4.06-2.59-8.86-7.12-15.51-13.38L187,266.63a3.65,3.65,0,0,0-5,0c-.24.22-23.86,22.54-47.5,22.54a34,34,0,0,1-4.45-.28c-3-.54-6-1.25-8.83-2a142,142,0,0,1-33.67-14.76,100.28,100.28,0,0,0,15.18,1.16c19.18,0,36.26-5.34,48.08-15,15.12-12.41,22.07-29.42,29.42-47.44,2.1-5.14,4.27-10.45,6.63-15.62A14.32,14.32,0,0,1,197.78,187l90.4-1.37a3.47,3.47,0,0,0-.29.25c-6,5.21-10.5,16-12.71,24.3C266,244.85,257.28,263,230.17,279Zm38.07-28.15c5.72-10.64,9.87-23.18,14-38.68h9.06C285.22,226.16,277.72,239.34,268.24,250.8Zm26.05-46h-9.66c.34-.88.7-1.76,1.07-2.6h9.57C295,203.07,294.63,203.94,294.29,204.8Zm22.82-1.14a6.15,6.15,0,0,1-2.83,1.14,11.44,11.44,0,0,1-5.06-.74c-1.38-.61-3.55-4-4.59-6.79a3.68,3.68,0,0,0-3.43-2.38H289.69a18.79,18.79,0,0,1,3-3.5c4.37-3.8,12.18-5.68,13.84-6,8.92-.36,13.45,4.53,13.83,9.19C320.68,198.44,319.43,201.93,317.11,203.66Z"/><path class="cls-1" d="M15.07,153.85a3.66,3.66,0,0,0,3.66-3.66C18.73,71.41,82.82,7.32,161.6,7.32S304.48,71.41,304.48,150.19a3.66,3.66,0,0,0,7.32,0C311.8,67.38,244.42,0,161.6,0S11.41,67.38,11.41,150.19A3.66,3.66,0,0,0,15.07,153.85Z"/><path class="cls-1" d="M194.73,154l70.11,0v-.27A103.48,103.48,0,0,0,161.36,50.27C104.21,50.27,57.88,96.87,57.88,154h70.37l1.6,0a31.41,31.41,0,0,1,19.86-28l1.4-.52c2.31-.82,3.28-2.14,4.67-5.41s1.49-8.8,1.49-8.8-17.73.16-20.05-.17-3.14-2.89,1.82-3.22c1.25-.08,10.84-.37,14.46-.66,4.05-.33,5-3,5.25-4.69.22-1.48.44-3.85.56-5.71.19-2.8.5-6.08,2.05-6,2.1,0,1.36,8.91,1.81,11.57.31,1.79.91,4.22,4.32,4.46,1.33.1,13,.9,15.19,1,5.29.24,4.83,3.34,1.49,3.34l-19.84.13s1,7.44,2,9.67,1.62,3.34,5.38,5c11.55,4.15,19.67,16,20.76,28.08Z"/><path class="cls-1" d="M161.19,131.76a23.08,23.08,0,0,0-23.14,19.43c-.12.64.25,2.72,2.15,2,2.9-1.13,9.57-3,20.33-2.89a75.47,75.47,0,0,1,21.53,3.14,1.84,1.84,0,0,0,2.24-2.16C182.1,140.25,172.8,131.76,161.19,131.76Z"/></g></g></svg>