<svg width="40" height="41" viewBox="0 0 40 41" fill="none" xmlns="http://www.w3.org/2000/svg">
<g clip-path="url(#clip0_2413_47435)" filter="url(#filter0_diii_2413_47435)">
<path d="M16.7427 21.8782C17.6143 21.0066 18.7715 20.5305 20.002 20.5305C21.2324 20.5305 22.3896 21.0066 23.2612 21.8782L27.5459 26.1628L35.0752 18.6335V8.43823C35.0752 6.29956 33.3394 4.56372 31.2007 4.56372H8.83252C6.69385 4.56372 4.95801 6.29956 4.95801 8.43823V18.7068L12.436 26.1848L16.7427 21.8782ZM20 14.9998C23.9624 14.9998 27.187 8.58472 27.187 12.5471C27.187 16.5095 23.9644 19.7322 20.002 19.7322C16.0396 19.7322 30 21.4998 29 11.4998C29 7.53735 16.0376 14.9998 20 14.9998ZM25.1948 3.8313H14.8091L17.2627 1.37769C18.7715 -0.131104 21.2178 -0.131104 22.7339 1.37769L25.1948 3.8313ZM37.5581 16.1506L35.8076 17.9011V14.4148L37.5581 16.1506ZM11.916 26.7048L2.58496 36.0359C2.16748 35.4207 1.92578 34.6809 1.92578 33.8826V16.7146L11.916 26.7048ZM2.4458 16.2019C2.43848 16.1946 2.43115 16.1873 2.42383 16.1799L4.22559 14.3855V17.9744L2.4458 16.2019ZM38.0708 16.6707V33.8826C38.0708 34.6809 37.8291 35.4207 37.4116 36.0359L28.0586 26.6829L38.0708 16.6707ZM22.7412 22.3982L36.9502 36.6072C36.3423 37.2224 35.522 37.6326 34.6138 37.7351L5.66846 37.7498C4.65039 37.7131 3.72754 37.281 3.05371 36.6072L17.2627 22.3982C18.7788 20.8821 21.2251 20.8821 22.7412 22.3982Z" fill="white"/>
<path fill-rule="evenodd" clip-rule="evenodd" d="M19.328 7.42711C19.5953 6.85761 20.4054 6.85763 20.6728 7.42716L21.8197 9.87045L24.3691 10.26C24.9334 10.3463 25.1802 10.9973 24.8546 11.4356L24.8465 11.4465L24.7979 11.5034L22.9219 13.4256L23.3642 16.1357C23.459 16.7173 22.8799 17.1562 22.3558 16.9454L22.3443 16.9407L22.2824 16.9113L20 15.6496L17.7291 16.9054C17.2133 17.1904 16.605 16.7928 16.6272 16.2284L16.6277 16.216L16.6346 16.1478L17.0784 13.4256L15.2121 11.513C14.8135 11.1044 15.0085 10.436 15.5323 10.2821L15.5454 10.2782L15.6184 10.2621L18.1806 9.87045L19.328 7.42711ZM20.0004 7.88806L18.7264 10.6009L15.8719 11.0372L17.9378 13.1544L17.4511 16.1398L19.9999 14.7303L22.5496 16.1398L22.0624 13.1544L24.1288 11.0372L21.2738 10.6009L20.0004 7.88806Z" fill="#EC840A"/>
<path d="M18.7264 10.6009L20.0004 7.88806L21.2738 10.6009L24.1288 11.0372L22.0624 13.1544L22.5496 16.1398L19.9999 14.7303L17.4511 16.1398L17.9378 13.1544L15.8719 11.0372L18.7264 10.6009Z" fill="#EC840A"/>
</g>
<defs>
<filter id="filter0_diii_2413_47435" x="-0.288749" y="-1.43301" width="40.5775" height="42.085" filterUnits="userSpaceOnUse" color-interpolation-filters="sRGB">
<feFlood flood-opacity="0" result="BackgroundImageFix"/>
<feColorMatrix in="SourceAlpha" type="matrix" values="0 0 0 0 0 0 0 0 0 0 0 0 0 0 0 0 0 0 127 0" result="hardAlpha"/>
<feOffset dy="1.36324"/>
<feGaussianBlur stdDeviation="0.769374"/>
<feComposite in2="hardAlpha" operator="out"/>
<feColorMatrix type="matrix" values="0 0 0 0 0.968627 0 0 0 0 0.647059 0 0 0 0 0 0 0 0 1 0"/>
<feBlend mode="normal" in2="BackgroundImageFix" result="effect1_dropShadow_2413_47435"/>
<feBlend mode="normal" in="SourceGraphic" in2="effect1_dropShadow_2413_47435" result="shape"/>
<feColorMatrix in="SourceAlpha" type="matrix" values="0 0 0 0 0 0 0 0 0 0 0 0 0 0 0 0 0 0 127 0" result="hardAlpha"/>
<feOffset dx="0.432773" dy="-1.68301"/>
<feGaussianBlur stdDeviation="1.41853"/>
<feComposite in2="hardAlpha" operator="arithmetic" k2="-1" k3="1"/>
<feColorMatrix type="matrix" values="0 0 0 0 0.968627 0 0 0 0 0.647059 0 0 0 0 0 0 0 0 1 0"/>
<feBlend mode="normal" in2="shape" result="effect2_innerShadow_2413_47435"/>
<feColorMatrix in="SourceAlpha" type="matrix" values="0 0 0 0 0 0 0 0 0 0 0 0 0 0 0 0 0 0 127 0" result="hardAlpha"/>
<feOffset dy="-0.721288"/>
<feGaussianBlur stdDeviation="1.61088"/>
<feComposite in2="hardAlpha" operator="arithmetic" k2="-1" k3="1"/>
<feColorMatrix type="matrix" values="0 0 0 0 1 0 0 0 0 1 0 0 0 0 1 0 0 0 1 0"/>
<feBlend mode="normal" in2="effect2_innerShadow_2413_47435" result="effect3_innerShadow_2413_47435"/>
<feColorMatrix in="SourceAlpha" type="matrix" values="0 0 0 0 0 0 0 0 0 0 0 0 0 0 0 0 0 0 127 0" result="hardAlpha"/>
<feOffset dx="0.528945" dy="0.961718"/>
<feGaussianBlur stdDeviation="2.16387"/>
<feComposite in2="hardAlpha" operator="arithmetic" k2="-1" k3="1"/>
<feColorMatrix type="matrix" values="0 0 0 0 1 0 0 0 0 1 0 0 0 0 1 0 0 0 1 0"/>
<feBlend mode="normal" in2="effect3_innerShadow_2413_47435" result="effect4_innerShadow_2413_47435"/>
</filter>
<clipPath id="clip0_2413_47435">
<rect width="37.5" height="37.5" fill="white" transform="translate(1.25 0.25)"/>
</clipPath>
</defs>
</svg>
