<svg width="30" height="30" viewBox="0 0 30 30" fill="none" xmlns="http://www.w3.org/2000/svg">
<path d="M11.1929 14.2167C11.1929 14.2167 4.2166 15.0534 1.13923 9.7153C1.13923 9.7153 -0.274702 7.29537 0.057987 4.59075C0.057987 4.59075 5.33943 4.34164 8.4168 7.11744C8.4168 7.11744 8.62473 2.66904 12.4507 1.92567e-08C12.4507 1.92567e-08 15.9023 2.02847 16.4013 6.58363C16.4013 6.58363 19.9777 4.27046 24.0532 4.7331C24.0532 4.7331 24.6354 8.71886 21.4333 11.7082C21.4333 11.7082 27.6712 11.8822 30 15.0336C30 15.0336 27.5048 18.4342 21.7659 18.5409C21.7659 18.5409 24.5522 21.3523 24.0532 25.1601C24.0532 25.1601 19.8946 25.7295 16.5677 23.4164C16.5677 23.4164 16.3182 27.758 12.6586 30C12.6586 30 8.79107 27.2598 8.74949 22.5979C8.74949 22.5979 5.40412 25.694 0.00715943 25.2669C0.00715943 25.2669 -0.316288 20.4982 3.38488 17.6157C3.38488 17.6157 6.25432 15.089 11.1199 15.694L9.78914 20.2491L11.0367 20.2491L13.6151 15.6228L17.441 15.6228C17.441 15.6228 18.1738 15.5469 18.1951 14.9419C18.2163 14.3369 17.4207 14.208 17.4207 14.208L13.5689 14.208L10.9231 9.59035L9.82149 9.59035L11.1929 14.2167Z" fill="white"/>
</svg>
